# This file uses centimeters as units for non-parametric coordinates.

mtllib object1.mtl
g default
v 0.000000 -1.000000 -1.000000
v -1.000000 -1.655744 -0.000000
v -0.000000 -1.000000 1.000000
v 1.000000 -1.655744 0.000000
v 0.000000 1.000000 0.000000
vt 0.500000 0.000000
vt 0.250000 0.250000
vt 0.500000 0.500000
vt 0.750000 0.250000
vt 0.250000 0.500000
vt 0.375000 0.500000
vt 0.500000 0.500000
vt 0.625000 0.500000
vt 0.750000 0.500000
vt 0.500000 1.000000
vn 0.000000 -0.836242 -0.548361
vn -0.000000 -1.000000 0.000000
vn -0.000000 -1.000000 0.000000
vn -0.764961 0.288040 -0.576080
vn -0.764961 0.288040 -0.576080
vn -0.764961 0.288040 -0.576080
vn -0.764961 0.288040 0.576080
vn -0.764961 0.288040 0.576080
vn -0.764961 0.288040 0.576080
vn 0.764961 0.288040 0.576080
vn 0.764961 0.288040 0.576080
vn 0.764961 0.288040 0.576080
vn 0.764961 0.288040 -0.576080
vn 0.764961 0.288040 -0.576080
vn 0.764961 0.288040 -0.576080
vn -0.000000 -0.836242 0.548361
s 1
g pCone1
usemtl initialShadingGroup
f 1/1/1 4/4/2 2/2/3
s off
f 1/5/4 2/6/5 5/10/6
f 2/6/7 3/7/8 5/10/9
f 3/7/10 4/8/11 5/10/12
f 4/8/13 1/9/14 5/10/15
s 1
f 2/2/3 4/4/2 3/3/16
